{"title":"Band Aid - Do They Know It's Christmas [1984] FLAC &amp; MP4 (20","uid":11587783,"size":241320870,"categoryP":"audio","categoryS":"flac","magnet":"?xt=urn:btih:83fe6f5caec1cc447b469e54cad08472552bd6d4&amp;dn=Band+Aid+-+Do+They+Know+It%27s+Christmas+%5B1984%5D+FLAC+%26amp%3B+MP4+%2820&amp;tr=udp%3A%2F%2Ftracker.openbittorrent.com%3A80&amp;tr=udp%3A%2F%2Fopen.demonii.com%3A1337&amp;tr=udp%3A%2F%2Ftracker.coppersurfer.tk%3A6969&amp;tr=udp%3A%2F%2Fexodus.desync.com%3A6969","seeders":2,"leechers":1,"uploader":"baby967","files":-1,"time":1417192099,"description":"\n                        28.11.1984. - 28.11.2014\n\nArtist................: Band Aid\n\nTitle.................: Do They Know It's Christmas\n\nDate Of Release.......: Oct-24-2014\n\nLabel.................: Phonogram, Columbia\n\nCat. No...............: \n\nCountry...............: UK / EU\n\nSource................: WEB (UNTOUCHED), CD Single CDDA,\n\nGenre.................: Electronic,Pop\n\nStyle.................: Pop Rock, New Wave, Synthpop, Christmas\n\nFormat................: FLAC (*.flac)\n\nQuality...............: Lossless (tracks+.cue-image+*.m3u)\n\nTracks................: 02\n\nTotal Time............: 00:10:12\n\nTotal Size............: ~ 63.1 MB\n\n\n\n                        Tracklist:\n\n\n 01. Do They Know It's Christmas (12''Mix) (06:18)\n\n 02. Do They Know It's Christmas (03:45)\n\n\n\nGeneral MP4\n\nComplete name                    : Band Aid - Do They Know It's Christmas [1984] FLAC &amp; MP4 (2014)Band Aid - Do They Know its Christmas 1984 .mp4\nFormat                           : MPEG-4\nFormat profile                   : Base Media / Version 2\nCodec ID                         : mp42\nFile size                        : 167 MiB\nDuration                         : 4mn 32s\nOverall bit rate                 : 5 149 Kbps\nEncoded date                     : UTC 2011-08-07 03:05:43\nTagged date                      : UTC 2011-08-07 03:05:43\ngsst                             : 0\ngstd                             : 272071\ngssd                             : B59D801E3HH1323189413973436\ngshh                             :\n\nVideo\nID                               : 1\nFormat                           : AVC\nFormat/Info                      : Advanced Video Codec\nFormat profile                   : &lt;a class=&quot;__cf_email__&quot; href=&quot;/cdn-cgi/l/email-protection&quot; data-cfemail=&quot;622a0b050a222e564c52&quot;&gt;[email&amp;#160;protected]&lt;/a&gt;&lt;script cf-hash='f9e31' type=&quot;text/javascript&quot;&gt;\n/* &lt;![CDATA[ */!function(){try{var t=&quot;currentScript&quot;in document?document.currentScript:function(){for(var t=document.getElementsByTagName(&quot;script&quot;),e=t.length;e--;)if(t[e].getAttribute(&quot;cf-hash&quot;))return t[e]}();if(t&amp;&amp;t.previousSibling){var e,r,n,i,c=t.previousSibling,a=c.getAttribute(&quot;data-cfemail&quot;);if(a){for(e=&quot;&quot;,r=parseInt(a.substr(0,2),16),n=2;a.length-n;n+=2)i=parseInt(a.substr(n,2),16)^r,e+=String.fromCharCode(i);e=document.createTextNode(e),c.parentNode.replaceChild(e,c)}}}catch(u){}}();/* ]]&gt; */&lt;/script&gt;\nFormat settings, CABAC           : Yes\nFormat settings, ReFrames        : 1 frame\nCodec ID                         : avc1\nCodec ID/Info                    : Advanced Video Coding\nDuration                         : 4mn 32s\nBit rate mode                    : Variable\nBit rate                         : 4 991 Kbps\nMaximum bit rate                 : 9 433 Kbps\nWidth                            : 1 920 pixels\nHeight                           : 1 080 pixels\nDisplay aspect ratio             : 16:9\nFrame rate mode                  : Variable\nFrame rate                       : 29.970 fps\nMinimum frame rate               : 29.412 fps\nMaximum frame rate               : 30.303 fps\nResolution                       : 24 bits\nColorimetry                      : 4:2:0\nScan type                        : Progressive\nBits/(Pixel*Frame)               : 0.080\nStream size                      : 162 MiB (97%)\nTagged date                      : UTC 2011-08-07 03:05:43\n\nAudio\nID                               : 2\nFormat                           : AAC\nFormat/Info                      : Advanced Audio Codec\nFormat version                   : Version 4\nFormat profile                   : LC\nFormat settings, SBR             : No\nCodec ID                         : 40\nDuration                         : 4mn 32s\nBit rate mode                    : Variable\nBit rate                         : 152 Kbps\nMaximum bit rate                 : 196 Kbps\nChannel(s)                       : 2 channels\nChannel positions                : L R\nSampling rate                    : 44.1 KHz\nResolution                       : 16 bits\nStream size                      : 4.93 MiB (3%)\nTitle                            : IsoMedia File Produced by Google, 5-11-2011\nEncoded date                     : UTC 2011-08-07 03:05:43\nTagged date                      : UTC 2011-08-07 03:05:43","torrent":{"xt":"urn:btih:83fe6f5caec1cc447b469e54cad08472552bd6d4","amp;dn":"Band+Aid+-+Do+They+Know+It%27s+Christmas+%5B1984%5D+FLAC+%26amp%3B+MP4+%2820","amp;tr":["udp%3A%2F%2Ftracker.openbittorrent.com%3A80","udp%3A%2F%2Fopen.demonii.com%3A1337","udp%3A%2F%2Ftracker.coppersurfer.tk%3A6969","udp%3A%2F%2Fexodus.desync.com%3A6969"],"infoHash":"83fe6f5caec1cc447b469e54cad08472552bd6d4","infoHashBuffer":{"type":"Buffer","data":[131,254,111,92,174,193,204,68,123,70,158,84,202,208,132,114,85,43,214,212]},"announce":[],"urlList":[]}}